<svg xmlns="http://www.w3.org/2000/svg" fill="none" viewBox="0 0 16 16" id="Avax--Streamline-Cryptocurrency" height="16" width="16">
  <desc>
    Avax Streamline Icon: https://streamlinehq.com
  </desc>
  <path fill="#e84142" d="M8 16c4.4183 0 8 -3.5817 8 -8 0 -4.41828 -3.5817 -8 -8 -8C3.58172 0 0 3.58172 0 8c0 4.4183 3.58172 8 8 8Z" stroke-width="0.5"></path>
  <path fill="#ffffff" fill-rule="evenodd" d="M5.759 11.375H4.245015c-0.318 0 -0.475 0 -0.571 -0.0615 -0.05058 -0.033 -0.092685 -0.07745 -0.12291 -0.12975 -0.03023 -0.05225 -0.04773 -0.11095 -0.05109 -0.17125 -0.006 -0.113 0.0725 -0.2515 0.23 -0.5275L7.466 3.88851c0.159 -0.28 0.24 -0.42 0.341 -0.472 0.0541 -0.027485 0.11385 -0.041815 0.1745 -0.041815 0.06065 0 0.12045 0.01433 0.1745 0.041815 0.1015 0.052 0.182 0.192 0.341 0.472L9.265 5.2315l0.004 0.007c0.1715 0.3 0.2585 0.453 0.2965 0.613 0.0425 0.17515 0.0425 0.3579 0 0.533 -0.038 0.1615 -0.1245 0.315 -0.2985 0.62l-1.963 3.475 -0.005 0.0085c-0.173 0.303 -0.26 0.4565 -0.382 0.5725 -0.1313 0.12575 -0.2907 0.2183 -0.465 0.27 -0.1595 0.0445 -0.337 0.0445 -0.693 0.0445Zm3.8215 0h2.168c0.32 0 0.481 0 0.577 -0.063 0.051 -0.0332 0.09335 -0.078 0.1236 -0.13075 0.03025 -0.0528 0.0475 -0.112 0.0504 -0.17275 0.0055 -0.1095 -0.071 -0.242 -0.2215 -0.5025l-0.016 -0.027 -1.086 -1.861 -0.0125 -0.021c-0.1525 -0.2585 -0.23 -0.389 -0.3285 -0.4395 -0.05365 -0.0274 -0.113 -0.04165 -0.17325 -0.04165 -0.0602 0 -0.1196 0.01425 -0.17325 0.04165 -0.1 0.052 -0.18 0.1885 -0.339 0.4625l-1.0825 1.861 -0.0035 0.0065c-0.1585 0.274 -0.238 0.4105 -0.232 0.523 0.00335 0.0606 0.0208 0.11955 0.05105 0.1722 0.0302 0.0526 0.0723 0.0974 0.12295 0.1308 0.094 0.0615 0.255 0.0615 0.575 0.0615Z" clip-rule="evenodd" stroke-width="0.5"></path>
</svg>