<svg xmlns="http://www.w3.org/2000/svg" viewBox="0 0 800 300" width="800" height="300">
  <rect width="100%" height="100%" fill="#0a0a0a"/>
  <g stroke="#1f2937" stroke-width="1">
    <line x1="60" y1="20" x2="60" y2="260"/>
    <line x1="60" y1="260" x2="780" y2="260"/>
  </g>
  <!-- Candlesticks -->
  <g stroke-width="6" stroke-linecap="round">
    <g stroke="#ef4444">
      <line x1="110" y1="120" x2="110" y2="210"/>
      <rect x="95" y="150" width="30" height="40" fill="#ef4444"/>
      <line x1="230" y1="100" x2="230" y2="200"/>
      <rect x="215" y="130" width="30" height="45" fill="#ef4444"/>
      <line x1="470" y1="140" x2="470" y2="220"/>
      <rect x="455" y="170" width="30" height="35" fill="#ef4444"/>
    </g>
    <g stroke="#22c55e">
      <line x1="170" y1="80" x2="170" y2="200"/>
      <rect x="155" y="120" width="30" height="60" fill="#22c55e"/>
      <line x1="290" y1="90" x2="290" y2="210"/>
      <rect x="275" y="140" width="30" height="55" fill="#22c55e"/>
      <line x1="350" y1="110" x2="350" y2="230"/>
      <rect x="335" y="160" width="30" height="60" fill="#22c55e"/>
      <line x1="410" y1="70" x2="410" y2="200"/>
      <rect x="395" y="110" width="30" height="70" fill="#22c55e"/>
      <line x1="530" y1="90" x2="530" y2="210"/>
      <rect x="515" y="130" width="30" height="60" fill="#22c55e"/>
      <line x1="590" y1="60" x2="590" y2="200"/>
      <rect x="575" y="100" width="30" height="80" fill="#22c55e"/>
      <line x1="650" y1="80" x2="650" y2="210"/>
      <rect x="635" y="120" width="30" height="70" fill="#22c55e"/>
    </g>
  </g>
  <text x="65" y="18" fill="#9ca3af" font-family="Arial, Helvetica, sans-serif" font-size="12">Price</text>
  <text x="740" y="290" fill="#9ca3af" font-family="Arial, Helvetica, sans-serif" font-size="12">Time</text>
</svg>
