<svg xmlns="http://www.w3.org/2000/svg" viewBox="0 0 800 300" width="800" height="300">
  <defs>
    <linearGradient id="g" x1="0" y1="0" x2="0" y2="1">
      <stop offset="0%" stop-color="#34d399" stop-opacity="0.35"/>
      <stop offset="100%" stop-color="#34d399" stop-opacity="0"/>
    </linearGradient>
  </defs>
  <rect width="100%" height="100%" fill="#0a0a0a"/>
  <g stroke="#1f2937" stroke-width="1">
    <line x1="60" y1="20" x2="60" y2="260"/>
    <line x1="60" y1="260" x2="780" y2="260"/>
    <g fill="#1f2937">
      <rect x="60" y="60" width="720" height="1"/>
      <rect x="60" y="110" width="720" height="1"/>
      <rect x="60" y="160" width="720" height="1"/>
      <rect x="60" y="210" width="720" height="1"/>
    </g>
  </g>
  <path d="M80 240 L150 220 L210 200 L260 210 L310 170 L360 180 L410 140 L470 150 L520 120 L580 110 L640 90 L700 70" fill="url(#g)" stroke="none"/>
  <polyline points="80,240 150,220 210,200 260,210 310,170 360,180 410,140 470,150 520,120 580,110 640,90 700,70" fill="none" stroke="#34d399" stroke-width="3"/>
  <g fill="#34d399">
    <circle cx="700" cy="70" r="5"/>
  </g>
  <text x="65" y="18" fill="#9ca3af" font-family="Arial, Helvetica, sans-serif" font-size="12">Price</text>
  <text x="740" y="290" fill="#9ca3af" font-family="Arial, Helvetica, sans-serif" font-size="12">Time</text>
</svg>
