<svg xmlns="http://www.w3.org/2000/svg" viewBox="0 0 800 300" width="800" height="300">
  <rect width="100%" height="100%" fill="#0a0a0a"/>
  <g stroke="#1f2937" stroke-width="1">
    <line x1="60" y1="20" x2="60" y2="260"/>
    <line x1="60" y1="260" x2="780" y2="260"/>
  </g>
  <g>
    <rect x="90" y="210" width="40" height="50" fill="#22c55e"/>
    <rect x="170" y="190" width="40" height="70" fill="#22c55e"/>
    <rect x="250" y="170" width="40" height="90" fill="#22c55e"/>
    <rect x="330" y="150" width="40" height="110" fill="#22c55e"/>
    <rect x="410" y="130" width="40" height="130" fill="#22c55e"/>
    <rect x="490" y="120" width="40" height="140" fill="#22c55e"/>
    <rect x="570" y="90" width="40" height="170" fill="#22c55e"/>
    <rect x="650" y="70" width="40" height="190" fill="#22c55e"/>
  </g>
  <polyline points="90,210 190,190 270,170 350,150 430,130 510,120 590,90 670,70" fill="none" stroke="#86efac" stroke-width="2"/>
  <text x="65" y="18" fill="#9ca3af" font-family="Arial, Helvetica, sans-serif" font-size="12">Value</text>
  <text x="740" y="290" fill="#9ca3af" font-family="Arial, Helvetica, sans-serif" font-size="12">Quarters</text>
</svg>
